#!OML:ASF X:\für Bonn\!DataBase\2005_08_12_Daniel\c3d\Daniel.ASF
:FULLY-SPECIFIED
:DEGREES
61
root 1.76422 17.6029 -15.4067 348.843 -2.2213 -1.7235
lowerback 16.8858 -0.0171016 2.80288
upperback 9.25804 0.32157 -2.78405
thorax 0.460529 0.33354 -4.57726
lowerneck 11.6143 1.40249 -1.54461
upperneck 31.8118 2.00744 -0.53576
head 8.11536 0.703751 0.139213
rclavicle -1.19271e-015 3.10104e-014
rhumerus 173.031 -158.025 -272.26
rradius 12.9812
rwrist 39.6848
rhand -24.6218 18.1699
rfingers 7.12502
rthumb 1.87684 -11.8016
lclavicle -1.19271e-015 3.10104e-014
lhumerus -25.1806 28.1742 77.1732
lradius 23.8674
lwrist -25.8588
lhand -9.52998 -5.82682
lfingers 7.12502
lthumb 16.4362 23.4969
rfemur 1.87402 5.42294 16.1874
rtibia 27.275
rfoot -16.5941 -0.0452356
rtoes -13.5878
lfemur -5.55649 -9.16568 -19.8709
ltibia 35.514
lfoot -17.9899 4.28804
ltoes -8.80642
62
root 1.77653 17.612 -15.3745 348.942 -2.20061 -1.63847
lowerback 16.8767 -0.0122388 2.62356
upperback 9.32172 0.302745 -2.78835
thorax 0.528868 0.319877 -4.47597
lowerneck 11.4854 1.39944 -1.50862
upperneck 31.7118 2.04756 -0.714485
head 8.10139 0.714412 0.0736793
rclavicle -1.27222e-014 -1.43125e-014
rhumerus 173.262 -158.55 -272.458
rradius 12.8907
rwrist 39.7367
rhand -24.7085 17.9944
rfingers 7.12502
rthumb 1.79306 -11.9779
lclavicle -1.27222e-014 -1.43125e-014
lhumerus -25.0176 27.9676 77.2821
lradius 24.1692
lwrist -25.5151
lhand -9.51294 -5.69315
lfingers 7.12502
lthumb 16.4526 23.6292
rfemur 1.7793 6.03505 16.1338
rtibia 26.3281
rfoot -16.3399 -0.457545
rtoes -13.6674
lfemur -5.37633 -9.31765 -20.0615
ltibia 35.2424
lfoot -18.0034 4.45513
ltoes -8.64225
63
root 1.78556 17.6208 -15.3443 349.054 -2.15806 -1.56809
lowerback 16.8864 -0.00995897 2.43222
upperback 9.36991 0.279426 -2.77725
thorax 0.570145 0.302141 -4.35107
lowerneck 11.4343 1.40157 -1.44492
upperneck 31.5444 2.10131 -0.931313
head 8.05172 0.733055 -0.00999394
rclavicle 1.19271e-015 1.11319e-014
rhumerus 173.443 -159.392 -272.621
rradius 12.8594
rwrist 39.4732
rhand -24.767 17.7898
rfingers 7.12502
rthumb 1.73655 -12.1829
lclavicle 1.19271e-015 1.11319e-014
lhumerus -24.8748 27.7126 77.4082
lradius 24.5157
lwrist -25.0463
lhand -9.46784 -5.63125
lfingers 7.12502
lthumb 16.496 23.6875
rfemur 1.67561 6.71136 16.1199
rtibia 25.41
rfoot -16.0509 -0.957242
rtoes -13.8847
lfemur -5.24433 -9.44261 -20.2171
ltibia 35.0027
lfoot -18.0241 4.58465
ltoes -8.63947
64
root 1.79239 17.6264 -15.3155 349.152 -2.09138 -1.48153
lowerback 16.9182 -0.00102144 2.22546
upperback 9.43725 0.263197 -2.77442
thorax 0.621403 0.288025 -4.22763
lowerneck 11.3346 1.39804 -1.26073
upperneck 31.4204 2.16569 -1.19758
head 8.02703 0.765855 -0.13047
rclavicle 9.34288e-015 -2.14687e-014
rhumerus 173.625 -160.569 -272.782
rradius 12.857
rwrist 38.7974
rhand -24.8381 17.5501
rfingers 7.12502
rthumb 1.66792 -12.4232
lclavicle 9.34288e-015 -2.14687e-014
lhumerus -24.7143 27.056 77.6435
lradius 24.9962
lwrist -24.1487
lhand -9.46724 -5.47202
lfingers 7.12502
lthumb 16.4966 23.8467
rfemur 1.60178 7.3993 16.08
rtibia 24.5372
rfoot -15.7419 -1.50462
rtoes -13.8633
lfemur -5.12703 -9.53962 -20.3773
ltibia 34.7943
lfoot -18.0334 4.68324
ltoes -8.59623
65
root 1.79687 17.6304 -15.29 349.262 -1.98424 -1.41032
lowerback 16.9818 -0.00587772 1.99725
upperback 9.50136 0.226592 -2.74401
thorax 0.650512 0.261495 -4.05985
lowerneck 11.2789 1.4118 -1.11324
upperneck 31.216 2.24527 -1.45023
head 7.96634 0.804094 -0.239664
rclavicle 2.18663e-015 -2.06736e-014
rhumerus 173.813 -161.781 -272.923
rradius 12.8723
rwrist 38.0821
rhand -24.9423 17.2971
rfingers 7.12502
rthumb 1.56733 -12.6769
lclavicle 2.18663e-015 -2.06736e-014
lhumerus -24.5426 26.4696 77.8948
lradius 25.4935
lwrist -23.2302
lhand -9.52069 -5.36636
lfingers 7.12502
lthumb 16.4452 23.9566
rfemur 1.52519 8.04942 16.0499
rtibia 23.7083
rfoot -15.4327 -2.11033
rtoes -13.7925
lfemur -5.0591 -9.66425 -20.5107
ltibia 34.6151
lfoot -18.0309 4.73996
ltoes -8.59311
66
root 1.79808 17.6336 -15.2657 349.358 -1.86345 -1.32082
lowerback 17.0823 0.0052025 1.74739
upperback 9.57458 0.207806 -2.73469
thorax 0.672381 0.243584 -3.90552
lowerneck 11.1496 1.39358 -0.909656
upperneck 31.0611 2.28594 -1.70221
head 7.93544 0.82913 -0.358532
rclavicle -4.17448e-015 -7.15625e-015
rhumerus 173.989 -163.134 -273.082
rradius 12.9216
rwrist 37.129
rhand -25.0144 17.043
rfingers 7.12502
rthumb 1.49768 -12.9314
lclavicle -4.17448e-015 -7.15625e-015
lhumerus -24.3764 25.7328 78.1464
lradius 26.0531
lwrist -22.2312
lhand -9.60942 -5.31251
lfingers 7.12502
lthumb 16.3597 24.0175
rfemur 1.46362 8.82011 16.0366
rtibia 22.9487
rfoot -15.1689 -2.86368
rtoes -13.6183
lfemur -4.98344 -9.76945 -20.6505
ltibia 34.4477
lfoot -18.0309 4.76541
ltoes -8.6109
67
root 1.79804 17.6378 -15.2436 349.455 -1.71792 -1.24707
lowerback 17.2194 0.0189372 1.52459
upperback 9.64561 0.196477 -2.70994
thorax 0.674168 0.229687 -3.75189
lowerneck 10.9282 1.36659 -0.850151
upperneck 30.9718 2.28743 -1.84087
head 7.93982 0.827128 -0.413885
rclavicle 2.38542e-015 -1.90833e-014
rhumerus 174.17 -164.433 -273.21
rradius 12.976
rwrist 36.1881
rhand -25.07 16.794
rfingers 7.12502
rthumb 1.44397 -13.1808
lclavicle 2.38542e-015 -1.90833e-014
lhumerus -24.1821 24.8602 78.4721
lradius 26.6427
lwrist -21.0639
lhand -9.75024 -5.23188
lfingers 7.12502
lthumb 16.2241 24.1092
rfemur 1.37915 9.66016 16.0588
rtibia 22.2648
rfoot -14.9102 -3.70174
rtoes -13.7481
lfemur -4.93265 -9.87018 -20.7681
ltibia 34.2861
lfoot -18.0074 4.77749
ltoes -8.6173
68
root 1.79635 17.6424 -15.2241 349.575 -1.53751 -1.17627
lowerback 17.3633 0.0310106 1.30788
upperback 9.71275 0.183514 -2.6868
thorax 0.668622 0.215104 -3.60329
lowerneck 10.7162 1.31961 -0.801943
upperneck 30.8513 2.26137 -1.9833
head 7.93137 0.811212 -0.469368
rclavicle 8.94531e-015 -1.35174e-014
rhumerus 174.337 -165.837 -273.317
rradius 13.0504
rwrist 35.049
rhand -25.0934 16.5349
rfingers 7.12502
rthumb 1.42141 -13.4401
lclavicle 8.94531e-015 -1.35174e-014
lhumerus -24.0257 23.9556 78.7773
lradius 27.2915
lwrist -19.9302
lhand -9.89456 -5.25249
lfingers 7.12502
lthumb 16.0852 24.0999
rfemur 1.25297 10.459 16.0713
rtibia 21.6862
rfoot -14.6939 -4.54863
rtoes -13.851
lfemur -4.91492 -9.98319 -20.8653
ltibia 34.122
lfoot -17.9917 4.76097
ltoes -8.64512
69
root 1.79363 17.6464 -15.2064 349.661 -1.34027 -1.10576
lowerback 17.5633 0.0532468 1.12664
upperback 9.79148 0.188772 -2.66492
thorax 0.648741 0.211152 -3.47984
lowerneck 10.5245 1.26908 -0.840196
upperneck 30.7214 2.20078 -2.00738
head 7.91409 0.778931 -0.470704
rclavicle 1.96797e-014 -3.10104e-014
rhumerus 174.483 -167.025 -273.39
rradius 13.1686
rwrist 34.0861
rhand -25.0905 16.3013
rfingers 7.12502
rthumb 1.42418 -13.6737
lclavicle 1.96797e-014 -3.10104e-014
lhumerus -23.8515 22.9801 79.1111
lradius 27.9694
lwrist -18.8208
lhand -10.0273 -5.2468
lfingers 7.12502
lthumb 15.9574 24.1159
rfemur 1.15495 11.1688 16.0824
rtibia 21.2263
rfoot -14.5106 -5.3578
rtoes -14.1603
lfemur -4.86983 -10.1416 -20.9748
ltibia 33.9628
lfoot -17.9578 4.75363
ltoes -8.65725
70
root 1.78933 17.6498 -15.1916 349.749 -1.1188 -1.01674
lowerback 17.7793 0.069802 0.979406
upperback 9.891 0.191185 -2.66294
thorax 0.643815 0.208167 -3.39662
lowerneck 10.285 1.2265 -0.978541
upperneck 30.596 2.12908 -1.93917
head 7.90433 0.737275 -0.42329
rclavicle 8.74653e-015 2.8625e-014
rhumerus 174.709 -167.805 -273.477
rradius 13.2204
rwrist 33.4734
rhand -25.0939 16.151
rfingers 7.12502
rthumb 1.42087 -13.824
lclavicle 8.74653e-015 2.8625e-014
lhumerus -23.6552 22.0255 79.4439
lradius 28.6814
lwrist -17.8309
lhand -10.2516 -5.28699
lfingers 7.12502
lthumb 15.7414 24.0928
rfemur 1.03777 11.6139 16.0366
rtibia 20.8979
rfoot -14.3292 -5.98472
rtoes -14.7726
lfemur -4.84928 -10.231 -21.0849
ltibia 33.8154
lfoot -17.9046 4.67897
ltoes -8.75767
71
root 1.78445 17.6525 -15.1793 349.836 -0.862931 -0.947642
lowerback 18.0484 0.087319 0.89917
upperback 9.96551 0.203921 -2.66737
thorax 0.586456 0.212558 -3.36072
lowerneck 10.1531 1.16019 -1.10223
upperneck 30.4162 2.01618 -1.84025
head 7.858 0.681949 -0.370204
rclavicle -6.36111e-015 7.95139e-015
rhumerus 174.883 -168.542 -273.523
rradius 13.2879
rwrist 32.887
rhand -25.065 15.9938
rfingers 7.12502
rthumb 1.44884 -13.981
lclavicle -6.36111e-015 7.95139e-015
lhumerus -23.5214 20.9434 79.7729
lradius 29.4429
lwrist -16.7829
lhand -10.459 -5.34745
lfingers 7.12502
lthumb 15.5416 24.048
rfemur 0.943718 11.7849 15.9888
rtibia 20.6898
rfoot -14.1616 -6.40661
rtoes -15.6779
lfemur -4.85929 -10.3645 -21.1711
ltibia 33.6884
lfoot -17.8665 4.58831
ltoes -8.71385
72
root 1.77887 17.6539 -15.17 349.908 -0.600843 -0.876842
lowerback 18.3515 0.104014 0.835785
upperback 10.0598 0.218128 -2.66469
thorax 0.533649 0.218515 -3.32757
lowerneck 10.0574 1.10483 -1.32878
upperneck 30.2123 1.89348 -1.64772
head 7.79631 0.618679 -0.268287
rclavicle -3.18055e-015 -7.95139e-016
rhumerus 175.072 -168.921 -273.551
rradius 13.351
rwrist 32.655
rhand -25.0606 15.9158
rfingers 7.12502
rthumb 1.45305 -14.059
lclavicle -3.18055e-015 -7.95139e-016
lhumerus -23.3784 19.9209 80.0979
lradius 30.2198
lwrist -15.8588
lhand -10.6821 -5.49629
lfingers 7.12502
lthumb 15.3267 23.9157
rfemur 0.883598 11.826 15.9406
rtibia 20.5981
rfoot -14.0634 -6.73696
rtoes -16.6983
lfemur -4.86819 -10.503 -21.2652
ltibia 33.5801
lfoot -17.8056 4.51484
ltoes -8.81186
73
root 1.77318 17.6553 -15.1651 349.974 -0.316536 -0.790218
lowerback 18.7053 0.11864 0.794678
upperback 10.1607 0.232431 -2.68445
thorax 0.463404 0.226134 -3.33171
lowerneck 9.97262 1.03078 -1.51254
upperneck 29.9669 1.74445 -1.44729
head 7.71897 0.548845 -0.172327
rclavicle -9.54166e-015 4.77083e-015
rhumerus 175.296 -169.052 -273.585
rradius 13.3849
rwrist 32.6008
rhand -25.0008 15.8873
rfingers 7.12502
rthumb 1.51083 -14.0871
lclavicle -9.54166e-015 4.77083e-015
lhumerus -23.2561 18.9185 80.4014
lradius 31.0633
lwrist -15.05
lhand -10.8205 -5.60459
lfingers 7.12502
lthumb 15.1934 23.8176
rfemur 0.82943 11.7325 15.8615
rtibia 20.5936
rfoot -13.9824 -6.96002
rtoes -17.6406
lfemur -4.9071 -10.6578 -21.37
ltibia 33.4898
lfoot -17.7322 4.43512
ltoes -8.92565
74
root 1.76717 17.6556 -15.1626 350.025 -0.0379951 -0.716494
lowerback 19.0994 0.147501 0.776437
upperback 10.2709 0.268866 -2.69532
thorax 0.385048 0.245675 -3.34412
lowerneck 9.92081 0.933966 -1.67379
upperneck 29.684 1.56219 -1.23558
head 7.62407 0.467402 -0.0780057
rclavicle -3.18055e-015 -1.35174e-014
rhumerus 175.528 -168.906 -273.601
rradius 13.4008
rwrist 32.8479
rhand -24.96 15.8829
rfingers 7.12502
rthumb 1.55022 -14.0912
lclavicle -3.18055e-015 -1.35174e-014
lhumerus -23.1436 17.8797 80.7152
lradius 31.9279
lwrist -14.2601
lhand -11.0899 -5.76962
lfingers 7.12502
lthumb 14.9339 23.672
rfemur 0.777065 11.5577 15.7867
rtibia 20.6513
rfoot -13.9379 -7.0949
rtoes -18.114
lfemur -4.94254 -10.7878 -21.4626
ltibia 33.4212
lfoot -17.6624 4.33765
ltoes -9.02901
75
root 1.76164 17.6552 -15.1639 350.045 0.28273 -0.63098
lowerback 19.5763 0.168743 0.7675
upperback 10.3852 0.296691 -2.70379
thorax 0.269768 0.261113 -3.35915
lowerneck 9.84018 0.834799 -1.88587
upperneck 29.4172 1.35449 -0.918294
head 7.53949 0.375865 0.0596691
rclavicle 1.51076e-014 -6.36111e-015
rhumerus 175.742 -168.744 -273.593
rradius 13.4397
rwrist 33.0845
rhand -24.905 15.8739
rfingers 7.12502
rthumb 1.60334 -14.0998
lclavicle 1.51076e-014 -6.36111e-015
lhumerus -23.0505 16.8818 81.029
lradius 32.8057
lwrist -13.548
lhand -11.3016 -5.93387
lfingers 7.12502
lthumb 14.7299 23.5228
rfemur 0.77344 11.3686 15.693
rtibia 20.7574
rfoot -13.9883 -7.22281
rtoes -18.4689
lfemur -4.97306 -10.9471 -21.5805
ltibia 33.3671
lfoot -17.5937 4.23016
ltoes -9.20474
